<?xml version="1.0" encoding="UTF-8"?>
<svg id="Layer_2" data-name="Layer 2" xmlns="http://www.w3.org/2000/svg" viewBox="0 0 1552.34 1528.85">
  <defs>
    <style>
      .cls-1 {
        fill: none;
        stroke: #f15a24;
        stroke-dasharray: 56.69;
        stroke-miterlimit: 10;
        stroke-width: 8.5px;
      }
    </style>
  </defs>
  <g id="Layer_4" data-name="Layer 4">
    <g>
      <path class="cls-1" d="M1551.94,742.48c-15.65-1.48-31.58-2.83-47.01-3.08-22.66-.36-45.29-3.39-67.98-1.91-10.37.68-20.67-.89-30.99-1.29-23.67-.91-47.34-1.16-71-1.58-44.66-.8-89.31-1.94-133.98-2.45-18.32-.21-36.67-.41-55-.66-54.32-.75-108.66-.5-162.98-1.21-132.32-1.74-264.64-.66-396.95-.51-35.98.04-71.99.18-107.99.69"/>
      <path class="cls-1" d="M294.09,738.49c10.48,17.95,17.71,37.45,26.92,56.01,21.8,43.93,43.21,88.1,67.32,130.77,30.44,53.88,61.39,107.5,95.33,159.35,6.63,10.13,12.26,13.19,24.39,13.35,24.31.31,48.65,2.93,72.99,4.57,14.33.96,28.72,2.09,43.02,2.46,24.33.63,48.62,2.93,72.98,2.35"/>
      <path class="cls-1" d="M1218.98,914.42c-5.18,13.45-13.28,25.4-20.28,37.83-21.11,37.49-42.13,75.06-65.62,111.17-5.29,8.13-10.42,16.42-14.98,24.99-2.61,4.9-6.34,6.09-11.08,4.88-6.73-1.71-13.52-.41-19.98.32-32.6,3.7-65.32,5.43-98,8.01-26.33,2.08-52.75,2.4-79.07,5.18-11.32,1.2-23.27.3-34.94.44-47.32.59-94.65,1.68-141.98,1.08-10.67-.14-21.33-2.04-32.96-.32,15.62,26.75,32.93,51.45,49.99,76.29,15.97,23.25,32.25,46.27,48.84,69.09,4.33,5.95,3.78,12.91-.9,18.89-25.15,32.07-50.23,64.2-76.98,94.97-3.27,3.76-8.07,6.85-4.99,13.01"/>
      <path class="cls-1" d="M1266.97,406.61c-14.22,1.81-27.37-3.82-40.97-6.12-21.99-3.73-43.88-7.94-65.99-11-10.35-1.43-20.65-3.38-31.02-4.85-3.66-.52-7.47-2.26-10.95.06-2.57,1.72-5.84,1.45-6.86-.19-5-8.06-12.82-3.99-19.21-4.69-25.3-2.78-50.61-5.51-75.98-7.61-20.98-1.74-42.02-2.82-62.97-4.78-15.33-1.44-30.7-.41-46.13-3.14-9.37-1.66-19.87-.29-29.88-.58-53.32-1.54-106.66-1.61-159.98-.88-45.71.62-91.38,3.06-137.01,6.52-22.33,1.7-44.64,3.66-66.97,5.32-3.59.27-6.74-.99-10-2.03"/>
      <path class="cls-1" d="M696.04,732.49c37.25,64.35,74.39,128.77,111.99,192.93"/>
      <path class="cls-1" d="M809.03,1262.29c-37.67.55-75.34-.15-112.98-1.18-25.34-.7-50.65-2.79-75.98-4.12-3.45-.18-6.68.56-10.01.3"/>
      <path class="cls-1" d="M588.06,542.56c20.42,33.89,38.86,68.91,58.81,103.07,12.56,21.51,24.13,43.63,37.24,64.83,9.71,15.69,10.12,22.08.94,37.03-26.74,43.51-51.01,88.43-76.08,132.9-7.55,13.39-14.66,27.04-22.91,40.03"/>
      <path class="cls-1" d="M478.07,734.49c11.3,18.12,20.51,37.4,30.96,56,16.89,30.05,33.35,60.33,50.83,90.06,5.95,10.12,10.94,21.1,17.62,30.58,6.59,9.36,5.24,16.92.53,25.26-27.76,49.23-54.67,98.93-81.01,148.94-1.31,2.49-3.86,4.27-4.94,7.03"/>
      <path class="cls-1" d="M920.02,734.49c-15.16,24.18-28.51,49.4-42.93,74.01-22.28,38.02-43.77,76.5-67.06,113.92"/>
      <path class="cls-1" d="M1303.97,741.48c-8.67,9.26-11.75,21.56-16.71,32.62-21.24,47.38-42.77,94.57-68.37,138.84-63.93,2.41-126.8,7.97-189.89,8.47"/>
      <path class="cls-1" d="M806.03,540.56c-21.12,33.85-40.92,68.48-61.18,102.85-16.31,27.67-32.01,55.69-48.81,83.08"/>
      <path class="cls-1" d="M585.06,541.56c-14.82,26.29-31.07,51.74-46.02,77.96-16.11,28.26-32.33,56.46-47.88,85.03-4.08,7.51-8.23,14.92-13.1,21.94"/>
      <path class="cls-1" d="M924.01,734.49c13.48,20.66,24.95,42.49,36.9,64.03,20.26,36.51,40.85,72.84,60.13,109.89,2.09,4.02,5.33,7.33,7.96,11.02"/>
      <path class="cls-1" d="M996.01,1254.29c-7.48-4.65-15.57-1.45-22.96-.68-36.93,3.83-74.03,5.02-111.03,7.5-16.93,1.14-34-.18-50.98,1.18"/>
      <path class="cls-1" d="M810.03,540.56c24.81,38.97,47.87,78.97,71.23,118.82,12.77,21.78,24.37,44.29,38.76,65.11"/>
      <path class="cls-1" d="M799.03,219.68c-62.12-.26-124.11,2.5-188.87,7.08,29.03,46.64,60.61,88.87,87.88,133.87"/>
      <path class="cls-1" d="M1131.99,736.49c-8.75,10.97-14.47,23.75-20.89,36.04-26.14,49.98-53.28,99.4-82.09,147.89"/>
      <path class="cls-1" d="M1028,546.56c19.26,29.05,35.6,59.81,53.01,89.96,15.59,27,30.05,54.62,44.93,82.01,1.87,3.45,5.58,5.3,7.05,8.97"/>
      <path class="cls-1" d="M475.07,729.49c-25.27,3.13-50.65,1.93-75.99,1.94-33,.02-65.99.92-98.98,1.31-31.32.37-62.67.93-93.99,1.79-36.33.99-72.66,2.07-108.98,3.26-10.63.35-21.45-.69-32.01,1.7"/>
      <path class="cls-1" d="M385.08,553.56c-30.08,53.9-58.18,108.85-85.7,164.08-2.22,4.45-9.29,7.96-5.29,14.85"/>
      <path class="cls-1" d="M1026,926.42c-26.94,45.76-54.36,91.22-82.93,135.99-8.85,13.87-18.82,27.06-26.06,41.95"/>
      <path class="cls-1" d="M589.06,926.42c1.64,12.79,10.08,22.55,16.36,32.76,29.87,48.59,59.81,97.16,90.62,145.17"/>
      <path class="cls-1" d="M1024,546.56c-10.37,16.93-19.37,34.63-28.95,52-19.17,34.74-38.02,69.66-57.95,103.99-4.28,7.37-7.66,15.26-13.09,21.94"/>
      <path class="cls-1" d="M990.01,228.68c-7.54,3.3-15.46,1.6-22.98.81-40.91-4.27-81.87-7.09-123-7.99-10.69-.23-21.33-1.4-32,.19"/>
      <path class="cls-1" d="M806.03,930.41c-30.73,51.48-61.76,102.77-93,153.93-23.8,38.98-48.57,77.36-72.99,115.96-10.03,15.86-20.56,31.39-30.97,47-4.8,7.19-.82,13.82,3.18,18.83,19.46,24.43,39.03,48.79,59.89,72.05,7.87,8.77,15.37,17.87,23.8,26.18,10.9,10.74,11.07,18.61,1.05,29.83-15.24,17.05-31.58,33.08-48.11,48.85-3.87,3.69-7.56,6.88-8.83,12.18"/>
      <path class="cls-1" d="M388.08,554.56c17.22,32.88,31.75,67.1,49.12,99.9,13.54,25.56,26.17,51.57,39.95,77.18-31.74,54.79-58.3,112.36-87,168.83-1.78,3.51-4.08,6.62-6.06,9.97"/>
      <path class="cls-1" d="M1215.98,560.55c-7.1,7.36-9.91,17.1-13.85,26.05-19.19,43.53-40.49,86.05-61.27,128.82-1.52,3.13-3.48,6.26-5.71,9.18-3.23,4.22-3.26,9.06-.19,13.91,18.78,29.72,32.79,61.9,48.04,93.44,10.32,21.34,20.61,42.7,29.95,64.5,1.86,4.34,5.74,7.04,8.04,10.98"/>
      <path class="cls-1" d="M810.03,930.41c20.85,32.28,39.24,66.03,59.16,98.86,14.82,24.43,28.71,49.44,44.83,73.07"/>
      <path class="cls-1" d="M915.02,367.63c12.41,20.93,26.86,40.52,39.98,60.98,23.36,36.42,46.79,72.8,69,109.95"/>
      <path class="cls-1" d="M698.04,366.63c-35.84,52-69.77,105.24-103.07,158.89-2.18,3.51-3.33,7.11-3.92,11.04"/>
      <path class="cls-1" d="M489.07,1094.35c-18.88,1.62-37.36-2.36-55.98-4.13-18.39-1.75-36.67-4.75-55.03-6.63-15.74-1.61-31.18-7.52-46.93-5.87-15.26,1.6-20.15-7.83-26.14-18.3-25.9-45.33-50.49-91.35-73.73-138.09-1.92-3.87-4.24-6.99-7.16-9.91"/>
      <path class="cls-1" d="M886.02,1379.24c-15.66-2.89-31.39-.19-46.98.35-32.35,1.12-64.64,2.59-97,.73-8.31-.48-16.7-.49-24.99.92"/>
      <path class="cls-1" d="M492.07,380.62c-8.73,19.07-21.93,35.4-33.25,52.82-24.31,37.41-47.15,75.68-69.63,114.19-1.57,2.69-2.27,5.09-6.11,4.99-29.57-.78-58.68,4.54-87.95,7.32-18.03,1.71-36.31,3.06-54.03,7.61-3.95,1.01-7.14-2.38-11-1.99"/>
      <path class="cls-1" d="M606.05,1256.29c-15.79-3.71-32.04-2.78-48.01-4.91-19.97-2.66-40.04-4.52-60-7.42-15-2.18-29.99-4.39-44.98-6.58-7.93-1.16-15.81-3.58-23.99-2.08"/>
      <path class="cls-1" d="M1275.97,416.61c32.09,48.55,58.18,100.44,84.89,152.8-5.58,4.33-12.82,3-18.86,1.88-37.43-6.97-75.34-9.94-113.04-14.69-4.1-.52-8.06.86-11.75,1.87,22.97,40.27,43.89,81.62,63.99,123.43,7.08,14.73,11.16,31.18,22.76,43.6"/>
      <path class="cls-1" d="M702.04,366.63c35.79,54.61,69.99,110.21,103.99,165.94"/>
      <path class="cls-1" d="M1113.99,386.62c9.58,19.96,23.59,37.15,35.13,55.89,20.38,33.1,40.32,66.45,59.81,100.07,1.82,3.15,3.79,6.14,6.04,8.97"/>
      <path class="cls-1" d="M603.05,229.68c-15.16-2.01-30.06,1.16-44.98,2.67-18.72,1.9-37.34,4.84-56,7.39-17.04,2.33-33.94,5.75-50.9,8.55-4.67.77-8.1-.62-12.1-.62"/>
      <path class="cls-1" d="M910.02,368.63c-33.56,54.51-66.82,109.19-99.99,163.94"/>
      <path class="cls-1" d="M293.09,734.49c-7.95,14.21-14.47,29.1-21,43.98-14.6,33.27-28.52,66.83-40.76,101.04-.7,1.95-1.72,4.89-2.48,5.67-6.87,7.09-9.23,14.87-5.75,24.23"/>
      <path class="cls-1" d="M714.04,1379.24c-29.78-.21-59.36-3.25-89.01-5.71-25.09-2.09-49.87-7.01-74.98-7.9-7.88-.28-14.36-4.51-21.98-4.55-1.18,0-3.07-1.25-4.01-2.83-13.95-23.5-35.42-40.68-51.98-61.98-13.1-16.85-27.97-32.4-39.7-50.17-8.99-13.62-21.13-24.49-29.66-38.57-9.1-15.02-20.63-28.66-30.5-43.29-9.81-14.56-19.96-28.93-28.98-43.98-8.14-13.57-18.56-25.82-24.13-40.9"/>
      <path class="cls-1" d="M1030,926.42c18.49,31.2,34.57,63.67,51.08,95.92,9.24,18.04,19.12,35.75,27.81,54.07,1.83,3.85,5.32,6.23,7.11,9.95"/>
      <path class="cls-1" d="M1169.98,1228.3c-2.93-.93-5.4-1.87-9.04-1.28-21.02,3.37-41.82,7.99-62.93,10.92-17.01,2.37-33.92,5.44-51,7.45-7,.82-14.15,1.17-20.95,2.67-5.88,1.3-11.37.92-17.06.23"/>
      <path class="cls-1" d="M1277.97,1070.36c-13.74-3.5-26.79,1.86-39.95,3.81-20.67,3.07-41.35,6.21-62.01,9.35-13.32,2.03-26.84,2.56-40,5.43-5.86,1.28-11.34-1.1-17.02-.6"/>
      <path class="cls-1" d="M708.04,115.72c27.97-1.71,55.99-2.49,83.99-1.86,24.34.54,48.69,1.09,73,2.8,5.37.38,10.91.75,15.99-1.93"/>
      <path class="cls-1" d="M386.08,546.56c-10.47-16.3-17.04-34.53-24.69-52.11-11.32-26.02-23.66-51.68-32.45-78.79-1.36-4.19-5.9-6.67-8.43-11.02-34.84,54.71-65.15,110.8-95.41,166.92"/>
      <path class="cls-1" d="M381.08,913.42c-24.47,1.69-48.68-1.9-73-3.37-18.71-1.13-37.3-3.51-55.99-4.5-9.31-.49-18.55-3.8-27.99-1.12"/>
      <path class="cls-1" d="M498.07,380.62c12.83,20,23.26,41.36,34.97,61.99,17.75,31.27,33.88,63.46,53.02,93.95"/>
      <path class="cls-1" d="M1059,1359.25c-8.44-5.05-16.93-.57-24.95.8-26.91,4.58-53.87,8.63-81.04,11.18-16.29,1.53-32.44,5.39-49.01,3.13-1.54-.21-2.85,1.62-3.98,2.9,1.91,7.64,6.84,13.41,12.01,18.97,13.17,14.15,25.87,28.74,39.95,42.03,3.22,3.04,6.86,5.93,7.02,10.97"/>
      <path class="cls-1" d="M1305.97,735.49c-1.64,1.01-1.46,3.05-.9,3.94,16.93,27.15,25.74,57.83,37.75,87.09,6.95,16.94,13.18,34.22,18.29,51.88,1.18,4.07,2.78,8.48,6.86,11.04"/>
      <path class="cls-1" d="M1107.99,386.62c-13.27,23.17-24.49,47.41-37.05,70.94-14.95,28.01-29.78,56.1-44.94,84"/>
      <path class="cls-1" d="M1365.96,907.42c-10.94,15-16.6,32.7-24.81,49.08-37.3,74.43-78.74,146.34-125.95,214.97-10.35,15.05-19.59,31.57-31.07,45.11-14.18,16.73-25.54,35.45-40.11,51.73-16.08,17.97-30.87,37.04-46.93,55.04-6.63,7.44-15.25,13.54-18.1,23.9"/>
      <path class="cls-1" d="M1455.95,362.63c-10.55,5.93-20.67,6.73-33.17,3.74-13.54-3.25-20.46-11.17-25.54-21.86-2.75-5.79-6.16-6.56-11.27-5.85-2.78.39-5.87.18-7.92-1.15-13.24-8.59-27.86-14.3-42.06-20.9-6.72-3.12-13.24-6.45-21.02-6.02-6.29.35-9.83-3.68-11.93-8.97-1.7-4.28-6.12-6.44-8.96-5.64-8.75,2.47-15.98-2.06-22.96-4.67-27.54-10.3-56.3-16.4-84.15-25.55-4.44-1.46-11.17,2.78-13.63-.36-8.55-10.89-20.92-7.07-31.39-9.46-33.02-7.55-66.5-12.97-99.99-17.8-11.63-1.68-23.78-6.46-35.93-1.46"/>
      <path class="cls-1" d="M911.02,1108.35c-3.8,12.73-13.18,22.11-20.12,32.91-23.54,36.65-49.64,71.55-74.87,107.04-8.42,11.84-8.33,16.75-.02,27.99,21.17,28.64,42.68,57.01,65.97,83.99,10.15,11.75,9.37,20.09-1.94,31.98-19.21,20.2-40.67,37.99-61.16,56.8-4.27,3.92-8.2,7.53-9.86,13.15"/>
      <path class="cls-1" d="M704.04,118.72c-15.33-4.46-30.7-.75-45.98.15-22.74,1.35-45.35,4.36-67.99,6.93-10.34,1.17-20.56,3.3-30.97,4.29-3.75.36-5.46-1.35-8.04-2.38"/>
      <path class="cls-1" d="M494.07,1100.35c31.36,48.7,64.73,96,100.1,141.86,2.71,3.51,3.94,6.91,3.89,11.08"/>
      <path class="cls-1" d="M226.1,577.55c-11.96,13.54-17.45,30.59-24.91,46.52-14.2,30.3-27.14,61.15-39.14,92.4-1.46,3.8-3.17,7.69-6.94,10.02"/>
      <path class="cls-1" d="M1110.99,1095.35c-7.88,19.6-21.36,35.74-33.07,52.93-20.69,30.35-42.28,60.06-64.41,89.4-4.99,6.62-12.72,11.06-15.71,17.01-5.29,10.54-12.89,18.66-19.81,27.57-21.63,27.83-45.07,54.11-69.03,79.93-3.31,3.56-6.12,6.97-5.93,12.06"/>
      <path class="cls-1" d="M292.09,725.49c-10.7-10.28-13.12-24.81-18.84-37.56-15-33.48-27.07-68.14-40.24-102.36-5.03-13.07-9.04-15.37-21.91-13.98-27.61,2.98-54.69,9.19-81.89,14.47-4.37.85-8.14-.37-12.1.48"/>
      <path class="cls-1" d="M382.08,920.42c-12.04,19.2-19.44,40.6-28.99,60.98-12.17,25.96-22.33,52.79-33.87,79.03-1.27,2.9-3.08,4.89-5.14,6.94"/>
      <path class="cls-1" d="M1058,141.71c-5.46-3.77-10.74-5.56-18.06-4.4-9.57,1.51-19.4-2.2-28.84-4.05-21.26-4.15-42.67-6.93-64.11-9.31-15.56-1.73-31.07-5.85-46.97-3.27-2.08.34-2.54-2.12-4.32-3.09,4.9-13.63,17.08-21.1,26.52-30.67,7.25-7.35,15.2-14.13,22.95-21.01,3.09-2.75,4.45-5.47,4.96-8.96-12.82-13.56-27.57-24.01-44.04-32.34-6.75-3.42-13.79-7.57-14.07-16.84"/>
      <path class="cls-1" d="M1459.95,591.54c-11.62,2.44-22.03-3.19-32.98-5.07-16.04-2.76-31.8-6.9-47.96-9.24-5.45-.79-9.51.75-14.19,2.36,22.67,44.26,40.04,90.74,57.87,137.01,1.55,4.04,3.51,7.02,6.27,9.89"/>
      <path class="cls-1" d="M1365.96,900.42c-16.87-1.72-33.34,2.41-49.97,3.8-19.34,1.62-38.68,3.61-58.03,5-12.27.88-24.56,4.02-36.98,1.2"/>
      <path class="cls-1" d="M153.11,737.49c3.81,11.36,10.24,21.53,14.17,32.93,13.17,38.18,29.16,75.25,45.86,112,1.8,3.96,3.41,8.12,6.97,11.01"/>
      <path class="cls-1" d="M1527.94,896.43c-7.2,3-10.84,8.99-12.96,16-6.11,20.18-13.01,40.1-20.08,59.95-1.8,5.05-4.11,9.95-8.95,13.01"/>
      <path class="cls-1" d="M1363.96,582.54c-9.62,9.68-10.73,23.08-14.84,35.04-10.97,31.92-22.97,63.45-35.25,94.87-1.83,4.69-3.78,9.6-7.91,13.03"/>
      <path class="cls-1" d="M1428.95,748.48c-8.23,7.12-8.51,17.81-11.89,27.03-12.56,34.3-24.81,68.7-40.02,101.96-1.96,4.3-3.58,8.64-7.09,11.95"/>
      <path class="cls-1" d="M917.02,1106.35c10.31,21.64,23.72,41.48,36.02,61.96,16.09,26.8,32.72,53.28,48.97,79.98"/>
      <path class="cls-1" d="M1220.98,918.42c9.18,10.78,12.44,24.49,17.85,37.05,13.43,31.21,25.96,62.8,37.21,94.88,1.19,3.4,2.98,6.66,5.94,9.02"/>
      <path class="cls-1" d="M899.02,121.72c.16,5.05,3.85,7.88,7.01,10.98,26.27,25.82,51.37,52.7,75.01,80.95,3.12,3.73,7.36,6.54,8.12,12,.18,1.31,1.16,3.37,2.86,3.98,17.35,6.21,21.02,24.8,32.48,36.51,12.13,12.39,22.11,27.32,32.34,41.6,14.75,20.59,29.94,40.88,44.23,61.81,1.95,2.86,4.11,5.37,3.92,9.05"/>
      <path class="cls-1" d="M790.03,1465.21c-24.89-3.79-50.03-.78-75-2.92-17.98-1.54-36.06-1.79-53.99-4.02-4.24-.53-8.59-.44-11.99,2.94"/>
      <path class="cls-1" d="M886.02,119.72c-3.83,12.93-15.22,20.12-23.18,29.84-15.88,19.41-32.89,37.91-47.82,58.12-6.11,8.27-6.25,18.27.03,25.98,27.36,33.63,52.83,68.69,77.78,104.11,5.43,7.71,13.55,14.27,14.19,24.85"/>
      <path class="cls-1" d="M718.04,116.72c1.47,10.77,10.83,15.94,17.23,22.78,20.36,21.74,39.09,44.87,58.71,67.24,8,9.12,7.08,18.65-1.94,29.94-22.02,27.56-42.58,56.22-62.89,85.04-7.61,10.79-16.05,21.05-22.17,32.88-1.02,1.97-2.24,3.71-1.93,6.03"/>
      <path class="cls-1" d="M423.08,257.67c-3.35,12.8-13.77,20.87-21.16,30.87-23.31,31.54-46.46,63.17-67.97,95.99-2.54,3.88-4.27,7.64-4.86,12.09"/>
      <path class="cls-1" d="M111.12,900.42c10.28,9.46,12.57,23.27,17.53,35.18,13.45,32.28,28.52,63.7,44.27,94.87,1.34,2.65,4.28,4.52,4.19,8.37-5.13,2.91-10.16,2.88-16.04.67-17.57-6.57-35.85-11.21-52.93-19.16-4.26-1.98-8.66-.79-13.01-.98"/>
      <path class="cls-1" d="M1307.97,1192.31c.39,6.27-3.89,10.43-7.05,14.96-20.93,30.06-44.39,58.19-66.56,87.29-8.03,10.53-15.54,20.53-27.36,26.73-1.32.7-2.48,2-4.02,1.93-23.09-1.1-43.15,10.77-64.96,15.2-15.75,3.2-31.2,9.12-47.07,10.3-15.24,1.14-25.71,5.57-35.44,18.15-12.31,15.91-28.32,28.92-43.52,42.35-8.32,7.35-16.28,15.08-24.91,22.09-3.64,2.96-6.88,6.29-9.37,10.74-2.82,5.06-8.35,6.94-14.55,8.71-9.52,2.71-18.91,1.55-28.08,2.92-25.27,3.76-50.68,5.39-76.06,7.48-22.62,1.86-45.34,1.67-67.99,3.05"/>
      <path class="cls-1" d="M1174.98,267.66c4.16,12.25,13.72,20.96,21.24,30.8,23.28,30.46,44.16,62.55,65.58,94.27,4.84,7.17,8.44,15.22,14.17,21.87"/>
      <path class="cls-1" d="M1477.95,502.58c9.37,7.4,10.52,19.11,14.85,29.05,6.35,14.58,11.8,29.56,16.28,44.88,1.63,5.58,5.78,9.65,11.87,11.03"/>
      <path class="cls-1" d="M1405.95,361.63c-5.51,4.43-5.74,10.95-5.86,17-.28,14.73-2.06,29.33-3.17,43.98-1.05,13.84-10.81,19.43-24,15.11-27.67-9.08-55.82-16.61-83.98-24.02-9.02-2.37-18.68,2.59-21.8,11.97-5.6,16.82-11.91,33.36-18.24,49.9-8.76,22.89-18.19,45.51-27.89,68.02-1.47,3.42-5.61,4.93-6.04,8.98"/>
      <path class="cls-1" d="M523.06,1358.25c-11.42,2.85-22.16-1.73-32.95-3.73-30.65-5.66-60.95-13.04-91.06-21.16-3.52-.95-7.61-2.79-10.97.9"/>
      <path class="cls-1" d="M311.09,1070.36c-12.76,3.32-24.89-1.26-36.95-3.74-24.81-5.1-49.8-9.54-74.12-17.01-5.23-1.61-11.73-2.94-17.04,2.57,16.13,25.97,30.23,53.9,47.22,80.09,10.46,16.12,19.87,32.96,31.85,48.08,1.77,2.24,2.12,5.11,2.04,7.97"/>
      <path class="cls-1" d="M415.08,1228.3c-14.24,2.45-27.54-2.91-40.93-5.78-27.29-5.86-54.68-11.64-81.11-21.03-3.55-1.26-7.94-.2-11.94-.17"/>
      <path class="cls-1" d="M154.11,745.48c-9.6,9.3-10.62,22.58-14.6,34.12-9.47,27.5-17.63,55.49-24.26,83.86-.8,3.44-2.67,6.7-4.48,8.64-2.32,2.49-2.42,4.61-2.68,7.32-.84,9,5.21,17.74-1.99,27.36-4.71,6.29-3.84,16.24-5.37,24.56-1.59,8.66-2.09,17.61-4.76,26.02-1.59,5.02-1.48,10.25-1.49,15.04-.01,11.91-6.55,21.79-8.58,33.06-4.8,1.66-9.3,1.39-13.84-2-13.9-10.37-28.67-10.99-43.94-3.07"/>
      <path class="cls-1" d="M1399.95,1042.37c1.21.71,1.48,2.16.94,2.96-20.51,30.23-35.01,63.97-55.55,94.26-7.02,10.35-14.84,20.68-19.52,32.67-.56,1.43-.65,2.69-.85,4.06"/>
      <path class="cls-1" d="M940.01,49.75c-4.18,1.64-7.92,2.84-13.03,2.32-42.53-4.34-85.06-9.46-127.95-8.22-2.82.08-5.23-1.59-8-1.09"/>
      <path class="cls-1" d="M721.04,112.72c-.22-6.11,4.21-9.46,8.04-12.95,16.97-15.49,34.38-30.49,53.04-43.91,4.46-3.21,6.71-7.14,8.6-11.87-2.03-1.78-3.51-3.5-5.67-3.19-31.19,4.43-62.72,2.09-94,4.84-11.94,1.05-23.95,4.72-36.05.27-1.16-.43-3.46.6-4.96,1.8-1.3,1.04-1.94,3.41-3.96,2.98-16.63-3.58-22.08,11.56-31.96,19.11-19.74,15.1-39,30.77-57.11,47.84-5.36,5.05-7.62,12.9-14.93,16.07"/>
      <path class="cls-1" d="M222.1,911.42c-9.55,10.1-10.72,23.78-14.78,36.06-8.48,25.63-16.4,51.48-22.22,77.9-1.04,4.73-4.13,8.31-6.99,12"/>
      <path class="cls-1" d="M1465.95,472.59c-6.84.26-12.83-1.3-19.16-4.69-10.47-5.61-21.68-9.98-32.74-14.53-5.99-2.46-11.27-3.03-16.89-.85,16.16,29.07,30.1,59.23,43.95,89.47,5.95,12.98,9.43,27.15,18.71,38.66,4.72,5.85,1.91,14.06,4.38,21.15,1.23,3.52.83,8.27,3.77,11.72,8.87,10.4,10.28,24.01,14.54,36.15,6.52,18.54,12.69,37.39,16.36,56.84.36,1.9,1.59,4.05,2.29,4.77,7.69,7.99,6.5,17.6,5.78,27.2"/>
      <path class="cls-1" d="M996.01,234.68c-27.94,42.26-55.15,84.99-81.99,127.95"/>
      <path class="cls-1" d="M490.07,1100.35c-18.04,29.75-33.09,61.08-49.02,91.95-6.22,12.05-11.33,24.7-18.97,36"/>
      <path class="cls-1" d="M1116.99,1093.35c17.28,34.52,33.95,69.34,50.04,104.44,3.66,7.99,6.42,16.46,11.95,23.51"/>
      <path class="cls-1" d="M1429.95,739.49c-.25,5.12.84,9.42,3.74,14.15,7.24,11.81,9.4,25.72,13.06,38.88,6.07,21.79,12.81,43.44,16.31,65.9.85,5.44,7.47,8.97,6.76,15-1.27,10.76-1.52,21.1-8.24,31.42-6.95,10.68-9.75,24.33-14.72,36.53-10.75,26.39-22.62,52.3-34.95,77.99-.92,1.91-2.2,3.7-3.96,5.02"/>
      <path class="cls-1" d="M275.1,299.65c-2.18,11.71-10.94,19.75-17.3,28.77-19.48,27.63-37.72,55.98-54.67,85.19-2.93,5.04-7.8,8.91-9.01,14.99"/>
      <path class="cls-1" d="M154.11,735.49c2.22-7.08-2.73-12.21-5.07-17.96-5.81-14.32-9.51-29.28-13.87-44.03-6.13-20.78-11.73-41.72-15.86-63-.77-3.98-2.27-6.66-5.19-8.96"/>
      <path class="cls-1" d="M529.06,139.71c-.49,6.07-5.28,9.2-9.02,12.97-26.97,27.15-52.8,55.32-76.96,85-4.48,5.5-6.17,12.46-13.74,16.49-7.64,4.07-14.94,1.18-22.39,2.97-32.48,7.81-64.88,15.85-96.8,25.72-2.06.64-4.5,1.26-6.03,1.05-9.68-1.27-16.79,1.55-21.1,10.7-1.26,2.67-4.87,2.92-6.92,2.82-17.15-.87-30.77,9.27-45.97,14.32-9.04,3.01-17.57,7.45-26.06,11.84-1.91.99-3.68,2.73-5.97,2.5-14.7-1.46-20.66,8.6-26,19.53"/>
      <path class="cls-1" d="M1476.95,1011.38c-9.2-2.78-16.53,3.28-23.8,6.45-10.6,4.62-21.51,8.27-32.22,12.48-9.45,3.71-13.03,1.96-18.01-6.91-6.3-11.22-6.78-24.03-9.64-36.09-5.56-23.46-12.9-46.42-18.61-69.83-.83-3.42-2.47-8.07-6.71-10.07"/>
      <path class="cls-1" d="M112.12,601.54c-10.89,15.03-14.57,33.11-20.83,50.04-7.63,20.65-13.43,41.97-20.64,62.75-2.83,8.15-8.35,15.02-4.53,24.15"/>
      <path class="cls-1" d="M538.06,133.71c-4.83,3.34-9.59,4.88-16.03,4.32-13.67-1.19-26.68,4.17-39.94,6.79-22.61,4.46-44.89,10.41-67.05,16.77-3.5,1-7.61,2.8-10.97-.89"/>
      <path class="cls-1" d="M317.09,406.61c-8.52-4.34-17.1-.68-24.91,1.32-27.09,6.94-54.74,11.78-81.17,21.39-4.97,1.81-11.23,1.69-16.9.27"/>
      <path class="cls-1" d="M622.05,1451.22c-9.81,3.94-19.38.07-28.99-1.05-28.29-3.3-55.95-10.22-83.95-15.21-3.98-.71-6.74.69-10.05,1.27"/>
      <path class="cls-1" d="M1313.97,312.65c.11,2.36-.51,4.88,1.01,6.99,25.9,35.9,49.14,73.49,70.99,111.96.59,1.04,2.25,1.38,1.99,3"/>
      <path class="cls-1" d="M1417.95,1189.32c-6.83-6.16-5.79-14.56-4.74-21.96,2.18-15.37-9.41-20.74-22.34-14.21-17.17,8.67-34.66,16.84-52.9,23.18-2.94,1.02-5.38,2.22-9.08,1.29-5.12-1.3-10.67.03-11.85,6.71-.95,5.39-5.6,7.12-9.04,6.7-12.89-1.6-23.5,5.06-35.02,8.32-24.9,7.05-50.09,12.96-75.05,19.77-3.99,1.09-8.76,1.32-12.95-.82"/>
      <path class="cls-1" d="M809.03,1464.21c2.2,13.13,15.08,15.61,23.1,22.87,4.41,3.99,9.53,7.65,14.98,9.91,8.07,3.35,11.47,9.33,12.91,17.2"/>
      <path class="cls-1" d="M106.12,463.59c12.91,2.97,22.06-6.46,33-9.99,10.85-3.5,21.28-8.12,31.98-12.05,12.56-4.61,20.5-1.23,23.72,13.11,7.21,32.1,16.47,63.56,26.3,94.9,1.42,4.52,2.85,9.05,6.99,12"/>
      <path class="cls-1" d="M431.08,253.67c18.9,35.7,38.09,71.26,56.89,107.01,2.29,4.36,6.32,7.35,8.1,11.94"/>
      <path class="cls-1" d="M1464.45,610.53c-8.46,7.14-7.27,17.92-9.17,27.06-5.65,27.28-12.32,54.26-20.54,80.83-1.88,6.06-6.99,11.08-6.78,18.06"/>
      <path class="cls-1" d="M369.08,1402.24c7.84-4.03,14.53-5.53,24.25-1.63,17.1,6.86,35.11,11.85,52.67,17.84,2.81.96,5.8,1.25,8.04,1,9.1-1,16.46,1.42,23.14,7.67,3.36,3.15,8.66.38,13.11,3.83,9.6,7.44,15.62,18.34,26.61,24.57,10.13,5.75,18.91,13.93,29.22,19.59,6.24,3.43,8,8.87,8.94,15.1"/>
      <path class="cls-1" d="M1187.98,172.7c-5.83,2.49-11.78.83-16.93-1.18-29.24-11.42-60.33-16.23-90.07-25.77-3.55-1.14-6.56,1.78-9.99,1.96"/>
      <path class="cls-1" d="M66.12,759.48c8.36,8.27,7.97,19.87,10.77,30.05,7.13,25.95,16.51,51.16,24.3,76.89.97,3.21,2.91,6.11,5.93,8.02"/>
      <path class="cls-1" d="M270.1,1192.31c27.78,39.77,56.24,79.03,89.03,114.92,2.97,3.26,4.32,6.76,3.95,11.04"/>
      <path class="cls-1" d="M1091.99,1428.23c-.08,5.1-3.51,8.46-7.08,10.87-11.89,8.03-22.65,17.73-35.03,24.9-6.76,3.92-9.98,8.97-10.88,16.21"/>
      <path class="cls-1" d="M1167.98,264.67c-12.59,19.53-19.79,41.74-30.93,62.01-9.4,17.11-16.7,35.33-27.06,51.95"/>
      <path class="cls-1" d="M1395.96,453.59c-7.61,7.07-6.89,17.1-8.87,26.02-5.89,26.53-11.39,53.13-19.98,78.99-1.1,3.32-2.84,5.68-5.14,7.95"/>
      <path class="cls-1" d="M94.12,1029.38c5.24,3.84,8.52,9.17,10.98,15,12.04,28.53,27.47,55.27,42.97,81.99,2.66,4.58,5.22,9.36,5.05,14.97"/>
      <path class="cls-1" d="M1406.95,1031.38c-2.66,3.11-4.76,6.6-6.94,10.15-11.79-2.18-22.19,2.83-33.08,5.72-22.5,5.97-45.31,10.74-67.99,15.97-4.44,1.03-9.37.44-13.96-.85"/>
      <path class="cls-1" d="M314.09,1078.36c-8.98,14.23-12.95,30.55-18.87,46.03-6.88,18.01-13.04,36.31-18.1,54.94-1.21,4.44-3.7,7.95-7.31,11.21-29.57-.92-55.04-15.49-81.67-26.31-5.66-2.3-11.06-3.89-17.04-1.9"/>
      <path class="cls-1" d="M1109.99,1417.23c-8.53,7.9-19.34,7.37-29.9,9.47-30.38,6.04-60.27,14.45-91.05,18.78-4.23.6-6.97-.28-10.04-2.26"/>
      <path class="cls-1" d="M850.02,1518.19c-5.31-5.56-12.22-5.53-18.99-4.93-24.97,2.2-49.98,2.07-75,1.83-3.45-.03-6.83.44-9.95,1.29-3.77,1.03-7.06,3.52-10.09-1.16-1.46-2.25-3.98-.97-5.96-.96-21.8.04-43.28-4.07-64.99-5.04-6.38-.29-12.46-2.53-19.01-2.19-5.15.27-9.58,1.11-12.99,5.17"/>
      <path class="cls-1" d="M625.05,55.74c-8.67-4.81-17.77-1.01-25.91.47-23.07,4.17-46.39,7.25-69.14,13.29-3.89,1.03-8.86,2.83-12.85.11-2.79-1.91-6.11-.24-6.88.39-8.38,6.83-19.34,8.12-28.22,13.71-4.88,3.07-9.3,6.12-16.13,3.4-3.94-1.57-9.35,1.33-13.79,2.79-12.01,3.94-24.54,6.94-35.86,12.24-10.49,4.91-19.05,4.43-28.19-1.41"/>
      <path class="cls-1" d="M704.04,4.76c-1.34,6.3-4.62,10.27-10.87,13.26-9.38,4.49-18.24,10.2-27.11,15.76-4.31,2.7-8.98,5.21-10.02,10.96"/>
      <path class="cls-1" d="M220.1,900.42c-17.27,2.19-33.98-2.94-51-3.93-19.44-1.13-38.22-8.33-57.99-6.07"/>
      <path class="cls-1" d="M1505.94,763.48c-8.35,9.05-7.93,21.26-10.68,32.07-5.46,21.51-12.2,42.6-18.27,63.91-1.07,3.75-2.88,6.76-6.05,8.98"/>
      <path class="cls-1" d="M1061,141.71c8.57,3.12,10.28,12.35,16.01,17.98,27.32,26.82,52.41,55.66,77.08,84.9,2.87,3.4,4.34,6.91,4.9,11.08"/>
      <path class="cls-1" d="M854.02,2.76c-1.34,6.3-4.83,10.04-10.83,13.31-9.68,5.28-19.56,10.47-28.32,17.49-3.31,2.66-4.85,5.52-5.85,9.18"/>
      <path class="cls-1" d="M741.04,1.76c2.92,6.41,6.93,11.2,13.88,14.26,7.02,3.09,13.58,7.54,20.28,11.45,5.74,3.35,9.93,7.01,11.84,13.27"/>
      <path class="cls-1" d="M64.12,722.49c-8.3-7.23-7.01-17.98-8.56-27.06-2.69-15.84-6.24-31.69-6.43-47.91-.07-5.34-4.16-8.3-7.28-12.61-9.26,9.56-9.17,22.31-12.67,33.62-2.68,8.67-2.82,18.82-14.04,21.98"/>
      <path class="cls-1" d="M647.05,51.75c.96,9.88,10.29,12.66,16.24,17.71,11.91,10.1,22.98,21.06,34.67,31.36,11.97,10.55,12.12,16.22,1.02,27.84-12.21,12.78-24.98,25.01-36.96,38.02-14.72,15.99-29.31,32.09-43.03,48.96-2.48,3.05-4.29,6.04-3.94,10.05"/>
      <path class="cls-1" d="M165.11,350.63c-.65,11.6-8.85,19.79-14.36,28.77-13.06,21.29-24.66,43.33-36.62,65.21-2.09,3.83-3.57,8.08-8.02,9.99"/>
      <path class="cls-1" d="M556.06,27.75c-1.85,7.35-5.35,12.83-12.9,16.22-7.86,3.53-14.5,9.49-21.99,13.94-3.67,2.18-7.15,5.64-7.11,10.82"/>
      <path class="cls-1" d="M1477.95,1025.38c-5.37,1.81-7.86,6.24-10,10.99-11.83,26.25-24.06,52.28-38.85,77.06-2.47,4.13-3.7,9.17-5.14,13.91"/>
      <path class="cls-1" d="M375.08,178.7c.23,4.88-3.03,7.8-5.97,11.02-23.58,25.87-46.58,52.24-68.16,79.84-3.2,4.1-5.27,8.12-5.86,13.1"/>
      <path class="cls-1" d="M1281.97,1073.36c9.01,11.08,10.63,25.17,14.7,38.08,6.12,19.4,12.57,38.78,16.37,58.87.54,2.84,2.81,5,4.92,7.01"/>
      <path class="cls-1" d="M602.06,1258.29c-20.02,31.65-41.7,62.18-63.05,92.93-2.19,3.15-4.48,6.1-4.94,10.03"/>
      <path class="cls-1" d="M96.12,488.58c-10.31,7.78-12.01,20.39-16.78,31.08-8.42,18.86-16.05,38.1-22.5,57.79-1.05,3.21-3.28,8.16-8.71,8.09"/>
      <path class="cls-1" d="M1005,1251.29c19.59,35.08,41.97,68.41,63.99,101.96"/>
      <path class="cls-1" d="M1216.98,192.69c1.79,11.36,11.56,17.19,18.24,24.77,19.44,22.06,37.28,45.37,55.78,68.16,2.21,2.72,2.96,5.69,2.97,9.02"/>
      <path class="cls-1" d="M32.13,925.42c4.85-3.94,5.37-9.32,5-14.99-.37-5.67.12-11.07,5.51-15.37,10.23,10.77,11.63,25.38,16.37,38.4,6.2,17.05,12.56,34.03,19.18,50.91,1.76,4.48,3.78,9.12,8.93,11.02"/>
      <path class="cls-1" d="M1323.96,1273.28c-6.38,1.07-9.74,4.39-12.33,10.87-4.82,12.08-15.34,20.42-23.79,30.02-7.47,8.49-15.08,16.91-23.03,24.95-5.03,5.09-6.36,10.59-5.85,17.14"/>
      <path class="cls-1" d="M1076,77.74c-5,2.02-9.45,1.89-15.09.35-24.02-6.55-48.45-11.54-72.91-16.26-2.88-.56-6.32-1-8.91.09-4.8,2.02-8.34,2.37-12.19-2.07-4.17-4.8-9.96-5.23-15.88-3.1"/>
      <path class="cls-1" d="M284.09,297.65c8.63,9.69,8.56,22.7,12.82,34.05,6.85,18.25,13.26,36.68,20.06,54.95,1.43,3.85,3.22,7.16,6.11,9.95"/>
      <path class="cls-1" d="M338.09,138.71c-.15,6.59-3.32,11.54-7.95,16.04-12.5,12.16-25.76,23.55-37.1,36.89-3.06,3.6-6.52,6.76-5.94,12.04"/>
      <path class="cls-1" d="M1405.95,1154.33c-17.59,29.26-36.48,57.66-57.04,84.93-2.77,3.67-4.04,7.56-3.95,12.03"/>
      <path class="cls-1" d="M1413.95,365.63c-.29,11.73,8.29,19.57,13.2,28.88,9.32,17.66,19.68,34.77,27.96,53.01,2.19,4.83,4.58,10.44,10.83,12.07"/>
      <path class="cls-1" d="M1305.97,308.65c-8.7,8.15-7.7,19.89-10.87,30.03-5.82,18.61-10.73,37.5-17.11,55.94-1.23,3.55-2.94,6.71-6.02,8.99"/>
      <path class="cls-1" d="M1465.95,886.43c-12.74-2.45-24.63,2.95-36.99,4.01-19.69,1.7-38.93,7.95-58.99,5.98"/>
      <path class="cls-1" d="M1043,41.75c-.23,6.74,4.09,10.35,8.93,14.08,8.79,6.77,19.1,11.04,25.73,21.48,3.72,5.86,13.56,8.77,21.4,11.21,2.57.8,4.7,1.67,7.01,3.08,8.49,5.21,14.27,13.06,21.23,19.8,11.49,11.13,24.5,20.74,35.68,32.31,8.7,9,20.87,14.74,25.21,27.91,1.09,3.3,5.42,4.78,8.83,5.97,3.64,1.28,6.72,2.67,7.06,6.97-9.62,11.56-12.68,26.14-19.06,39.12-5.92,12.04-9.42,25.28-18.03,35.97"/>
      <path class="cls-1" d="M182.11,1053.37c-9.04,9.97-8.46,23.07-10.79,35.03-2.95,15.15-5.29,30.48-6.16,45.94-.24,4.31-4.16,6.62-5.05,10.49"/>
      <path class="cls-1" d="M496.07,79.73c8.07,13.89,20.09,24.59,30.12,36.89,26.48,32.47,50.83,66.52,75.68,100.2,2.16,2.93,5.09,7.26,2.19,11.85"/>
      <path class="cls-1" d="M464.07,1418.23c-1.41-9.16-9.19-13.66-15.17-18.79-20.11-17.24-37.48-37.23-57.03-54.95-4.46-4.04-3.96-10.04-10.33-13.97-10.08-6.24-19.95-9.88-31.35-12.68-24.17-5.93-46.98-16.33-70.09-25.57-2.26-.9-4.35-1.3-7-1.28-8.04.08-15.01-3.15-18.96-10.74-3.65-7.02-10.86-10.83-17.09-11.4-9.42-.87-17.32-5.36-23.56-10.07-12.95-9.78-24.17-7.68-36.38-.49"/>
      <path class="cls-1" d="M421.08,1233.3c-14.72,26.99-27.69,54.82-39.96,82.98-1.48,3.4-4.3,5.8-6.03,8.98"/>
      <path class="cls-1" d="M249.1,234.68c.37,9.49-7.13,14.71-12.16,20.86-15.09,18.45-29.09,37.67-42.95,57.03-2.95,4.11-4.68,8.19-4.88,13.08"/>
      <path class="cls-1" d="M1524.94,610.53c-12.26,4.92-22.13-3.32-32.99-6.03-8.58-2.14-16.52-7.55-26-4.97"/>
      <path class="cls-1" d="M1530.94,872.44c-13.95-4.17-25.98,4.07-38.99,6.03-6.64,1-12.99,4.71-20,1.97"/>
      <path class="cls-1" d="M64.12,741.48c4.22,11.95-5.45,20.53-7.65,30.96-4.41,20.9-9.25,41.7-11.35,63.01-.13,1.33.58-.11-.05.97-5.99,10.25-7.03,21.51-6.95,33.02"/>
      <path class="cls-1" d="M1097.99,89.73c-12.69,17.56-26.8,34.07-38.92,52.03-20.17,29.87-42.37,58.39-60.06,89.92"/>
      <path class="cls-1" d="M1332.96,248.67c-.08,5.29,1.43,9.82,4.93,14.05,16.42,19.84,31.24,40.89,45.92,62.02,2.56,3.68,5.96,7.61,5.14,12.9"/>
      <path class="cls-1" d="M96.12,409.61c4.51,4.44,5.71,9.34,5.37,16.01-.5,9.93-1.99,20.08,2.31,30.11,2.28,5.32.12,11.84-3.71,16.83-5.18,6.76-4.67,13.26-.02,20.05,3.06,4.46,2.65,9.9,2.98,14.97,1.35,20.51,4.1,40.83,8.16,60.95,1.36,6.71,8.28,12.83,4.53,19.81-2.1,3.91-2.5,7.29-2.63,11.19"/>
      <path class="cls-1" d="M541.06,1367.25c.39,5.51,4.65,8.45,8,12,19.47,20.6,40.46,39.64,62.23,57.69,6.88,5.71,9.79,14.11,16.76,19.28"/>
      <path class="cls-1" d="M1475.95,439.6c-9.62,14.07-13.69,28.46-3.04,44.01,4.79,6.99,4.66,14.58.95,21.92-1.97,3.89-3.03,7.79-2.89,12.04.6,18.14-3.05,35.96-3.95,53.98-.2,4.03-2.38,6.56-5.06,8.99"/>
      <path class="cls-1" d="M1177.98,1226.3c12.92,19.85,19.36,42.64,28.82,64.05,3.38,7.64,6.16,15.54,10.17,22.91"/>
      <path class="cls-1" d="M1467.95,898.43c7.03,3.73,5.81,11.55,6.55,17.05,2.48,18.58,5.35,37.21,6.14,55.93.33,7.78,5.89,13.92,4.69,22.03-.34,2.32.13,4.72-1.36,6.95-6.83,10.25-7.16,20.9-2.12,32.02.75,1.66.26,3.97.08,5.95-.63,6.63,1.04,12.39,6.03,17"/>
      <path class="cls-1" d="M1217.98,1392.24c-13.91-10.92-26.8-3.19-40.03,1.92-10.22,3.95-20.25,8.39-30.91,11.27-4.39,1.19-8.12,3.55-13.1,1.96-4.13-1.32-7.48,1.78-11.01,3.74-3.65,2.03-6.67,5.21-10.94,6.1"/>
      <path class="cls-1" d="M387.08,169.7c-5.8,5.8-12.7,7.65-20.97,8.31-12.69,1.01-23.87,8.08-35.95,11.89-14.76,4.65-27.54,14.86-44.06,15.03-4.49.05-7.44,6.4-13,5.75"/>
      <path class="cls-1" d="M1401.95,1046.37c3.13,2.6,4.64,5.71,5.14,9.98,2.29,19.63,6.19,39.1,5.88,58.99-.02,1.32-.67.03.05.95,10.18,13.06.99,23.8-4.07,35.04"/>
      <path class="cls-1" d="M1311.97,1278.28c-4.11,0-8.16-.15-12.02,1.96-18.27,9.98-38.02,16.6-56.96,25.06-4.63,2.07-9.21,2.61-14.01.96"/>
      <path class="cls-1" d="M1202.98,1324.26c.23,4.88-3.05,7.78-5.97,11.02-18.94,21.05-39.7,40.28-60.01,59.97-3.18,3.08-7.06,5.8-7.02,10.98"/>
      <path class="cls-1" d="M104.12,358.63c13.76,7.85,27.18,10.44,40.03-1.97,7.18-6.93,16.98-7.59,26-9.92,3.36-.87,4.62,1.83,6.13,4.81,5.05,9.93,2.38,20.82,4.64,31.11,2.59,11.85,3.69,24.03,6.1,35.96.71,3.54,2.8,5.71,5.1,7.98"/>
      <path class="cls-1" d="M269.1,1292.28c-.36,4.28.96,7.8,3.95,11.04,15.22,16.44,29.69,33.61,46.16,48.81,6.8,6.28,10.05,13.09,8.88,22.13"/>
      <path class="cls-1" d="M974.01,64.74c2,7.48,8.56,10.75,14.01,14.98,18.7,14.51,36.54,30.02,54.02,45.96,3.09,2.82,5.01,6.08,5.96,10.04"/>
      <path class="cls-1" d="M366.08,122.72c7.21,11.74,12.1,24.61,17.97,37,14.55,30.72,29.6,61.18,46.02,90.95"/>
      <path class="cls-1" d="M810.03,44.75c.53,6.48,5.4,9.62,9.99,13,16.61,12.25,32.41,25.5,47.85,39.15,5.59,4.94,12.09,9.39,14.43,17.74,1.62,5.78,8.01,3.95,12.72,4.08"/>
      <path class="cls-1" d="M707.04,1512.19c-.47-6.54-4.37-9.98-9.91-13.15-14.19-8.14-27.33-17.97-41.13-26.77-6.05-3.86-7.12-12.2-13.98-15-5.81-2.37-10.33-4.74-15.47,3.64-6.14,10-17.66,15.56-27.37,22.48-6.03,4.3-12.96,8.8-13.13,17.81"/>
      <path class="cls-1" d="M472.07,89.73c-1.32,6.96-7.24,9.92-11.96,14.04-17.25,15.04-34.95,29.6-51.03,45.94-5.64,5.73-7.27,15.06-16.02,17.92-1.27.42-2.39,1.73-3.98,1.07"/>
      <path class="cls-1" d="M1525.94,645.52c-5.79,4.65-6.63,11.08-7.09,17.99-1.02,15.44-3.02,30.77-5.76,46.02-.74,4.11-2.79,6.98-5.15,9.97"/>
      <path class="cls-1" d="M274.1,1200.31c-8.7,8.15-7.3,20-10.95,30-5.1,13.94-4.12,29.47-11.02,42.98-.2.4-.03.99-.03,1.49-.33-.17-.67-.33-1-.5"/>
      <path class="cls-1" d="M1195.98,110.72c-10.14,6.32-19.69,7.24-31.22,1.44-9.6-4.82-20.23-8.35-30.75-11.53-4.49-1.36-8.69-1.79-13.02.09"/>
      <path class="cls-1" d="M596.06,14.76c1.1,9.1,8.6,12.55,14.99,17,7.81,5.43,18.65,7.52,21,18.99"/>
      <path class="cls-1" d="M1307.97,223.68c-18.59-6.69-37.14-13.32-55.17-21.6-10.83-4.97-21.27-12.7-34.87-10.75-4.34.62-8.27-4.93-12.95-6.63"/>
      <path class="cls-1" d="M1509.94,763.48c7.26,4.94,5.52,13.34,6.65,20.05,2.46,14.56,6.55,28.97,6.32,43.92-.06,3.87,2.52,5.86,5.03,8"/>
      <path class="cls-1" d="M996.01,22.76c-.86,9.31-8.89,12.42-15.06,16.9-6.63,4.81-15.7,6.99-16.93,17.08"/>
      <path class="cls-1" d="M1314.97,1190.32c8.19,11.75,6.73,25.97,10.13,38.95,2.59,9.92-.7,20.94,5.87,30.02"/>
      <path class="cls-1" d="M1268.97,173.7c-.73,6.36,1.23,11.39,5.85,16.14,4.42,4.55,8.98,9.05,13.05,13.93,2.77,3.32,5.85,6.91,5.1,11.91"/>
      <path class="cls-1" d="M970.01,1451.22c2.49,10.32,11.55,14.82,19.16,19.75,13.84,8.98,20.39,21.41,21.84,37.23"/>
      <path class="cls-1" d="M169.11,1162.33c-2.6-2.97-4.39-6.76-5.69-10.12-2.92-7.55-7.69-10.47-15.31-9.88-8.57.67-15.56-4.98-20.58-9.46-13.93-12.44-27.14-9.86-41.41-2.53"/>
      <path class="cls-1" d="M950.01,1456.21c-3.26,9.91-12.58,13.61-20.1,18.84-9.32,6.48-19.62,11.91-28.53,18.62-11.43,8.61-21.49,19.69-27.36,33.51"/>
      <path class="cls-1" d="M529.06,1362.25c-1.76,10.62-10.7,16.67-16.22,24.84-6.76,10.02-14.41,19.5-21.76,29.15-2.55,3.34-5.74,6.38-6.02,10.98"/>
      <path class="cls-1" d="M107.12,885.43c-18.28.65-35.44-5.39-52.96-9.16-3.76-.81-7.35-.68-11.03-.84"/>
      <path class="cls-1" d="M740.04,1519.19v8"/>
      <path class="cls-1" d="M267.1,223.68c7.04,8.46,4.83,19.44,7.82,29.05,2.53,8.14,4.02,16.64,6,24.98.85,3.61,2.67,5.82,5.19,7.95"/>
      <path class="cls-1" d="M111.12,594.54c-11.61-4.41-21.38,2.89-32.03,4.8-10.06,1.8-18.99,9.07-29.96,6.2"/>
      <path class="cls-1" d="M38.13,849.44c-9.95-7.28-8-19.16-10.72-29.06-1.95-7.09-4.34-14.31-4.32-21.92,0-3.35-2.9-4.95-4.96-7"/>
      <path class="cls-1" d="M1070,1356.25c14.09,20.04,27.24,40.71,40.99,60.98"/>
      <path class="cls-1" d="M86.12,1006.38c7.64,9.69,7.97,19.09,3.7,31.23-3.44,9.79-1.66,21.86-.36,32.7.86,7.15-.6,12.27-5.34,17.03"/>
      <path class="cls-1" d="M1315.97,239.67c-4.75,5.89-4,13.09-5.22,19.95-2.15,12.15-.28,25.4-8.78,36.02"/>
      <path class="cls-1" d="M316.09,1384.24c16.25-14.32,15.18-11.94,33.96-2.93,5.17,2.48,4.42,8.74,7.03,12.93"/>
      <path class="cls-1" d="M95.12,480.58c-5.02-.66-9.91-.66-14,3-12.9,11.57-26.72,10.43-41,3"/>
      <path class="cls-1" d="M1531.94,996.39c-9.94-1.63-19.47-8.61-29.94-2.9-4.86,2.65-9.82,3.04-15.05,2.9"/>
      <path class="cls-1" d="M1475.95,1124.34c-4.4-1.5-8.72-3.19-13.04-4.89-5.15-2.02-11.99-3.16-15.67.2-8.06,7.32-17.03,9.74-27.28,9.69"/>
      <path class="cls-1" d="M1214.98,1318.27c7.93,10.73,9.81,23.82,13.88,36.03,1.87,5.61,3.59,11.14,7.12,15.95"/>
      <path class="cls-1" d="M376.08,1330.26c-8.79,12.16-12.67,26.67-18.71,40.12-1.65,3.68-3.86,7.09-5.29,10.86"/>
      <path class="cls-1" d="M42.13,616.53c-7.67-2.94-15.33,1.56-23,0"/>
      <path class="cls-1" d="M1517.94,490.58c-10.93,2.47-21.71,7.51-33.07,1.13-1.9-1.07-4.44,1.65-6.93.87"/>
      <path class="cls-1" d="M205.1,232.68c11.17,5.75,21.66,8.51,34.31,1.58,6.17-3.38,14.47-3.61,20.74-8.5,4.54-3.54,9.59-6.42,11.77-13.52-4.77-6.24-3.88-16.25-9.83-23.54"/>
      <path class="cls-1" d="M1388.96,1252.29c-6.94-2.22-13.13-6.91-21.01-6.16-.59.06-2.14-1.3-2.94-.77-7.33,4.86-16.6,4.95-23.93,9.13-16.25,9.28-18.16,16.06-10.96,33.73.96,2.36,1.78,5.15,3.85,7.06"/>
      <path class="cls-1" d="M1219.98,136.71c-5.9,7.72-7.76,17.21-10.75,26.07-1.9,5.65-4.47,10.77-7.25,15.91"/>
      <path class="cls-1" d="M172.11,286.66c4.86,6.24,6.84,12.75,5.29,21.05-1.34,7.2-1.62,15.25,5.21,20.94"/>
      <path class="cls-1" d="M41.13,895.43c1.89-6.25-.72-12.59.67-19.06.84-3.92-3.33-5.77-7.59-7.16-9.91-3.25-18.91-.9-28.08,2.22-1.6.55-3.16,1.53-4.99,1.02"/>
      <path class="cls-1" d="M478.07,1429.23c-3.21,6.81-8.06,12.55-13.14,17.86-4.86,5.09-8.39,10.69-10.86,17.13"/>
      <path class="cls-1" d="M893.02,1506.2c4.59,1.42,9.39,1.5,13.98.87,7.22-.99,13.59.03,19.02,5.13"/>
      <path class="cls-1" d="M468.07,46.75c2.75,9.13,7.69,16.8,14.96,23.03,2.77,2.37,5.68,4.86,6.04,8.95"/>
      <path class="cls-1" d="M1403.95,310.65c-3.22,4.85-6.63,9.48-5.1,16.02,1.06,4.51-2.85,7.88-3.9,11.97"/>
      <path class="cls-1" d="M256.1,1287.28c-4.26,4.52-4.47,10.42-4.86,16-.33,4.78-1.47,8.82-5.14,11.99"/>
      <path class="cls-1" d="M1358.96,236.68c-4.36,1.6-8.58,3.54-12.99,5.04-4.99,1.7-10.2,7.38-14.79,4.6-8.19-4.95-17.59-9.29-21.34-19.59-1.07-2.94-.76-4.64,1-7.13,2.35-3.32,4.11-7.05,7.12-9.91"/>
      <path class="cls-1" d="M38.13,565.55c10.3,14.96,12.65,30.56,6.37,48.12-2.33,6.52-.14,14.57-1.37,21.86"/>
      <path class="cls-1" d="M1115.99,68.74c-3.51,7.19-11.23,11.26-14,18.99"/>
    </g>
  </g>
</svg>