<?xml version="1.0" encoding="UTF-8"?>
<svg id="Layer_1" data-name="Layer 1" xmlns="http://www.w3.org/2000/svg" viewBox="0 0 466.51 504.89">
  <defs>
    <style>
      .cls-1 {
        fill: none;
        stroke: #000;
        stroke-miterlimit: 10;
      }
    </style>
  </defs>
  <path class="cls-1" d="M259.28,307.07c23.05,16.21,47.6,37.89,43.48,56.66-10.86,49.5-212.17,38.14-212.13,39.53.05,1.52,244.06,34.01,292.5-63.24,13.99-28.1,12.1-67.9-7.91-93.55-57.44-73.65-249.36-11.68-250.34-17.13-1.09-6.06,242.74-46.66,241.12-80.37-.16-3.36-2.7-5.33-17.13-15.81-45.75-33.23-68.63-49.85-72.47-51.39-60.49-24.25-161.29,28.87-181.83,100.14-3.73,12.94-3.98,23.61-3.95,28.99.5,87.86,85.68,261.47,205.54,252.97,105.11-7.45,185.22-151.27,167.33-271.42-1.28-8.6-19.42-118.09-117.26-168.65C242.81-29.65,114.4,15.85,52.42,89.67-28.37,185.88,4.03,329.74,24.75,421.7c7.94,35.24,17.67,63.7,25.03,83.01"/>
</svg>